<?xml version="1.0" encoding="UTF-8"?>
<svg width="115px" height="23px" viewBox="0 0 115 23" version="1.1" xmlns="http://www.w3.org/2000/svg" xmlns:xlink="http://www.w3.org/1999/xlink">
    <title>Shape</title>
    <g id="Page-1" stroke="none" stroke-width="1" fill="none" fill-rule="evenodd">
        <g id="MacBook-Pro-14&quot;-Copy-5" transform="translate(-132.000000, -81.000000)" fill="#000000" fill-rule="nonzero">
            <g id="Shape" transform="translate(132.000000, 81.000000)">
                <path d="M0,1.66170543 L0,8.72217054 L3.42580525,8.72217054 L3.67560355,5.36310078 L8.13628747,5.36310078 L8.13628747,18.9848062 L6.06653013,18.9848062 L6.06653013,22.6862016 L14.6667287,22.6862016 L14.6667287,18.9848062 L12.6255198,18.9848062 L12.6255198,5.36310078 L17.0576553,5.36310078 L17.336002,8.72217054 L20.7261218,8.72217054 L20.7261218,1.66170543 L0,1.66170543 Z M20.669025,14.555969 C20.669025,19.9547287 24.0591448,22.935814 28.9266431,22.935814 C31.8457146,22.935814 33.8869236,22.0300775 35.5498666,20.6179845 L34.5435363,17.2589147 C33.1946255,18.3572093 31.8171663,19.2344186 29.8330541,19.2344186 C27.3207969,19.2344186 25.7863216,18.0077519 25.2510395,16.0037209 L36.3063986,16.0037209 C36.3349469,15.5330233 36.3706324,14.5916279 36.3706324,14.1851163 C36.3706324,9.57085271 33.9797058,6.30449612 28.8338609,6.30449612 C24.151927,6.30449612 20.669025,9.2855814 20.669025,14.555969 Z M25.1225718,13.4576744 C25.4722895,11.1683721 26.949668,9.75627907 28.9551915,9.75627907 C31.5602309,9.75627907 32.7878111,11.5748837 32.7878111,13.4576744 L25.1225718,13.4576744 Z M38.0621238,14.555969 C38.0621238,19.9547287 41.0168808,22.935814 45.0636132,22.935814 C47.0762738,22.935814 48.6464346,22.3082171 49.8097809,21.0530233 L49.8097809,22.6862016 L56.1546577,22.6862016 L56.1546577,19.484031 L54.0777633,19.484031 L54.0777633,6.55410853 L49.8097809,6.55410853 L49.8097809,8.22294574 C48.7106684,6.93209302 47.1048222,6.30449612 45.0636132,6.30449612 C41.0168808,6.30449612 38.0621238,9.2855814 38.0621238,14.555969 Z M42.4585738,14.655814 C42.4585738,11.7674419 44.0929684,10.1057364 46.3554273,10.1057364 C47.9898219,10.1057364 49.3030472,11.0756589 49.8097809,12.7088372 L49.8097809,16.6955039 C49.3387327,18.2930233 47.9898219,19.2629457 46.3554273,19.2629457 C44.0929684,19.2629457 42.4585738,17.5370543 42.4585738,14.655814 Z M56.782722,6.55410853 L56.782722,9.72775194 L59.2592937,9.72775194 L59.2592937,15.7826357 C59.2592937,20.8034109 61.1149382,23 64.348042,23 C65.5756222,23 66.924533,22.7147287 68.4590083,22.1513178 L67.9594117,18.3857364 C66.9887668,18.7351938 66.2036865,18.9491473 65.4757028,18.9491473 C64.2552597,18.9491473 63.5344132,18.2003101 63.5344132,15.9110078 L63.5344132,9.72775194 L68.0521939,9.72775194 L68.0521939,6.55410853 L63.5344132,6.55410853 L63.5344132,1.84713178 L59.2592937,1.84713178 L59.2592937,6.55410853 L56.782722,6.55410853 Z M69.8150562,6.55410853 L69.8150562,9.72775194 L71.9133619,9.72775194 L71.9133619,19.484031 L69.8150562,19.484031 L69.8150562,22.6862016 L78.2939242,22.6862016 L78.2939242,19.484031 L76.1884814,19.484031 L76.1884814,6.55410853 L69.8150562,6.55410853 Z M70.785701,2.28930233 C70.785701,3.88682171 71.9775957,4.6427907 73.8617886,4.6427907 C75.7459815,4.6427907 76.9735617,3.88682171 76.9735617,2.28930233 C76.9735617,0.748837209 75.7459815,0 73.8617886,0 C71.9775957,0 70.785701,0.748837209 70.785701,2.28930233 Z M91.1050084,14.5274419 C91.1050084,17.415814 89.4706138,19.1060465 87.3009371,19.1060465 C85.0741637,19.1060465 83.5325514,17.4443411 83.5325514,14.5274419 C83.5325514,11.6390698 85.1383976,9.97736434 87.3009371,9.97736434 C89.4706138,9.97736434 91.1050084,11.6390698 91.1050084,14.5274419 Z M95.465773,14.555969 C95.465773,9.2855814 91.8544033,6.30449612 87.3009371,6.30449612 C82.747471,6.30449612 79.1361013,9.2855814 79.1361013,14.555969 C79.1361013,19.9547287 82.747471,22.935814 87.3009371,22.935814 C91.8544033,22.935814 95.465773,19.9547287 95.465773,14.555969 Z M96.3507727,6.58976744 L96.3507727,9.75627907 L98.3919816,9.75627907 L98.3919816,19.484031 L96.3507727,19.484031 L96.3507727,22.6862016 L104.729721,22.6862016 L104.729721,19.484031 L102.659964,19.484031 L102.659964,12.3308527 C103.25948,10.9472868 104.201576,9.72775194 105.707503,9.72775194 C107.713027,9.72775194 108.690809,11.139845 108.690809,14.1494574 L108.690809,22.6862016 L115,22.6862016 L115,19.484031 L112.958791,19.484031 L112.958791,13.0868217 C112.958791,8.6579845 110.760566,6.27596899 106.99218,6.27596899 C105.107987,6.27596899 103.694843,7.08899225 102.659964,8.22294574 L102.659964,6.58976744 L96.3507727,6.58976744 Z"></path>
            </g>
        </g>
    </g>
</svg>